<svg id="Layer_4" data-name="Layer 4" xmlns="http://www.w3.org/2000/svg" viewBox="0 0 2157.16 1298.96"><defs><style>.cls-1,.cls-28,.cls-39{fill:#fff;}.cls-2{fill:#ff8b17;}.cls-3{fill:#fff200;}.cls-4{fill:#dbd1bd;}.cls-5{fill:#eadfc7;}.cls-6{fill:#f4e9ce;}.cls-7{fill:#8c7c72;}.cls-8{fill:#fff3d4;}.cls-9{fill:#6d615a;}.cls-10{fill:#334b8e;}.cls-11{fill:#3b53a8;}.cls-12{fill:#4055bc;}.cls-13{fill:#9461bc;}.cls-14{fill:#a869d1;}.cls-15{fill:#bf72e8;}.cls-16{fill:#c671c6;}.cls-17{fill:#d879d4;}.cls-18{fill:#e880de;}.cls-19{fill:#c689b9;}.cls-20{fill:#d390c2;}.cls-21{fill:#e59ace;}.cls-22{fill:#485ad8;}.cls-23{fill:#d378f9;}.cls-24{fill:#f484e4;}.cls-25{fill:#f2a0d5;}.cls-26{fill:#ff440b;}.cls-27{fill:#ff603b;}.cls-28{opacity:0.35;}.cls-29{fill:#e0340b;}.cls-30{fill:#eadfc5;}.cls-31{fill:#dbc8af;}.cls-32{fill:#e55438;}.cls-33{fill:#a667ce;}.cls-34{fill:#5f99ff;}.cls-35{fill:#83e8ff;}.cls-36{fill:#ff9c1a;}.cls-37{fill:#ffe33e;}.cls-38{fill:#84d359;}.cls-39{opacity:0.22;}.cls-40{fill:#78bc51;}.cls-41{fill:#558de0;}.cls-42{fill:#76d3e2;}</style></defs><title>background</title><path class="cls-1" d="M845.65,1214.65c-24.6,1.69-47,12.24-56,26.37-48.86-22.73-127.91-14.75-162.27,16.38-66.82-15.45-147.2-6.08-200.07,23.33-33-4-69.4,6.12-86.07,24-3.11,3.35-5.64,7.13-4.89,11,2.1,10.76,25.38,13.39,43.08,13.25l881.56-7.38c15.19-.12,35.74-3.6,34.43-12.87-.59-4.14-5.93-7.39-11.26-10-32.6-15.79-78.23-20.91-117.85-13.22,7.68-5.25,4.68-14.09-3.59-19s-20.13-6.69-31.51-7.72c-38.3-3.46-78.15-.23-113.68,9.19,3.46-16.3-25.37-30-52.15-29s-49.55,12.51-66.24,25.38C919.73,1237.6,899.28,1211,845.65,1214.65Z" transform="translate(-224.44 -55.75)"/><path class="cls-2" d="M1438.61,1239.38a5.29,5.29,0,0,1-2.36,2.34,15.9,15.9,0,0,0-1.56-8.31,12.45,12.45,0,0,1-3.38,7.93,32,32,0,0,0-7.75-19.42,22,22,0,0,0-3.86,11.7,21,21,0,0,0-4.79-8.08c0,7.68-7.63,14.06-6.79,21.7a12.23,12.23,0,0,1-1.16-5.11,18.94,18.94,0,0,0-1.52,12.13c.44,2.07,1.48,4.31,3.5,4.94l27.55,0,1.2,1.4A37.81,37.81,0,0,0,1438.61,1239.38Z" transform="translate(-224.44 -55.75)"/><path class="cls-3" d="M1428.5,1253.25a36.13,36.13,0,0,0-2.22-15,8.34,8.34,0,0,1-1.71,4.8c-.91-2.61-1.83-5.21-2.74-7.81a61.14,61.14,0,0,0-3.8,15.88,18.63,18.63,0,0,1-3.46-5.51,16.54,16.54,0,0,0,0,13.4l16-.45a4.41,4.41,0,0,1,.31,1.72l.36-13.22A10.24,10.24,0,0,1,1428.5,1253.25Z" transform="translate(-224.44 -55.75)"/><path class="cls-4" d="M1424.38,1217.86l52.76-.2s150.16-168.53,177.22-253.48c23.39-73.43,13.62-163-47.52-216.27-72-62.8-184.47-61.64-184.47-61.64Z" transform="translate(-224.44 -55.75)"/><path class="cls-5" d="M1422.37,686.27s91.81,4.18,145.94,56.88c57.25,55.75,56.12,92.75,54.61,144.87-4,137.66-153.58,329.67-153.58,329.67l-45,.17Z" transform="translate(-224.44 -55.75)"/><path class="cls-6" d="M1423.37,686.27s48.3,9.3,92.23,50.47c46.9,44,55.5,119.62,46.12,185.83-12.06,85.19-103.12,295.16-103.12,295.16l-33.22.13Z" transform="translate(-224.44 -55.75)"/><polygon class="cls-7" points="1255.94 1162.11 1226.11 1201.64 1233.04 1235.04 1228.73 1235.1 1222.07 1201.7 1250.8 1162.19 1255.94 1162.11"/><path class="cls-4" d="M1422,1217.86h-52.76s-150.8-168-178.18-252.81c-23.66-73.34-14.23-162.91,46.71-216.44,71.79-63.07,184.23-62.34,184.23-62.34Z" transform="translate(-224.44 -55.75)"/><path class="cls-5" d="M1422,686.27s-91.79,4.53-145.72,57.43c-57,56-55.77,93-54.06,145.07,4.51,137.65,154.82,329.09,154.82,329.09h45Z" transform="translate(-224.44 -55.75)"/><path class="cls-6" d="M1422,686.27s-48.26,9.49-92,50.82c-46.74,44.13-55,119.82-45.43,186,12.39,85.15,104.24,294.77,104.24,294.77H1422Z" transform="translate(-224.44 -55.75)"/><path class="cls-8" d="M1471.21,743.45c-15.82-37.94-49.24-57.17-49.24-57.18h0s-33.32,19.41-49,57.43c-14.57,35.47-22,87.38-14.51,173.36s50.83,300.8,50.83,300.8l28-.07s42.17-215,49.25-301.06S1486,778.84,1471.21,743.45Z" transform="translate(-224.44 -55.75)"/><rect class="cls-7" x="1141.66" y="1158.56" width="114.28" height="3.55"/><path class="cls-7" d="M1167.21,1234.58h65.94a0,0,0,0,1,0,0V1292a7,7,0,0,1-7,7h-51.92a7,7,0,0,1-7-7v-57.38A0,0,0,0,1,1167.21,1234.58Z"/><path class="cls-9" d="M1450.86,1290.33v52.26a7,7,0,0,1-7,7h-51.95a7,7,0,0,0,6.74,5.11h51.94a7,7,0,0,0,7-7v-57.38Z" transform="translate(-224.44 -55.75)"/><polygon class="cls-7" points="1141.66 1162.11 1172.09 1201.17 1167.21 1234.58 1171.52 1234.58 1176.13 1201.17 1146.79 1162.11 1141.66 1162.11"/><polygon class="cls-7" points="1172.09 1201.17 1226.11 1201.64 1227.38 1207.76 1171.13 1207.76 1172.09 1201.17"/><path class="cls-10" d="M1246.85,741.12H1422V686.27S1318.64,685.61,1246.85,741.12Z" transform="translate(-224.44 -55.75)"/><path class="cls-11" d="M1422,741.12V686.27s-88.77,4.38-143,54.85Z" transform="translate(-224.44 -55.75)"/><path class="cls-12" d="M1325.88,741.12H1422V686.27s-48.27,9.49-92,50.82C1328.56,738.4,1327.21,739.75,1325.88,741.12Z" transform="translate(-224.44 -55.75)"/><path class="cls-13" d="M1422.41,802.44V741.12H1247.29q-4.65,3.58-9.11,7.49a163.78,163.78,0,0,0-40.2,53.83Z" transform="translate(-224.44 -55.75)"/><path class="cls-14" d="M1420.5,802.44V741.12h-143c-.91.85-1.81,1.71-2.71,2.58-22.2,21.79-35.57,40.69-43.51,58.74Z" transform="translate(-224.44 -55.75)"/><path class="cls-15" d="M1290.07,802.44H1421V741.12H1324.9C1308.47,758.11,1297.2,779.24,1290.07,802.44Z" transform="translate(-224.44 -55.75)"/><path class="cls-16" d="M1179.21,878.55h242.63V802.44H1197.41C1186.3,826.08,1180.47,852.12,1179.21,878.55Z" transform="translate(-224.44 -55.75)"/><path class="cls-17" d="M1422,802.44H1232.74c-11.11,25.23-11.63,48.77-10.87,76.11H1422Z" transform="translate(-224.44 -55.75)"/><path class="cls-18" d="M1422,802.44H1291c-7.36,23.93-10.34,50-10,76.11h141Z" transform="translate(-224.44 -55.75)"/><path class="cls-19" d="M1422,878.55H1179.34a245.21,245.21,0,0,0,7.9,73.51H1422Z" transform="translate(-224.44 -55.75)"/><path class="cls-20" d="M1421.85,878.55H1221.76c.09,3.35.2,6.75.31,10.22.67,20.2,4.47,41.56,10.47,63.29h189.31Z" transform="translate(-224.44 -55.75)"/><path class="cls-21" d="M1422,878.55H1281a337.82,337.82,0,0,0,3.53,44.54c1.24,8.52,3.28,18.29,5.94,29H1422Z" transform="translate(-224.44 -55.75)"/><path class="cls-22" d="M1362.46,952.06c-.24,2.26,7.66,86.13,58.55,86.13s61.7-86.13,61.7-86.13Z" transform="translate(-224.44 -55.75)"/><path class="cls-12" d="M1292,957.35c-.15.78,16.13,82,44.81,80.93s26-85.91,26-85.91L1332,979.89Z" transform="translate(-224.44 -55.75)"/><path class="cls-11" d="M1232.54,952.06c.47,2.07,28.32,86.69,55.37,86.13s3.74-80.53,3.74-80.53l-20.29,24.21Z" transform="translate(-224.44 -55.75)"/><path class="cls-10" d="M1187.64,953.41s31.64,85,50.61,84.8-6.67-89.15-5.71-86.15-13.67,33.85-13.67,33.85Z" transform="translate(-224.44 -55.75)"/><path class="cls-21" d="M1290.44,952.06s7.27,45.66,38,45.06,34-45.06,34-45.06Z" transform="translate(-224.44 -55.75)"/><path class="cls-20" d="M1232.54,952.06s11.46,44.17,40,44.15c28,0,17.9-44.15,17.9-44.15Z" transform="translate(-224.44 -55.75)"/><path class="cls-19" d="M1187.24,952.06s12.64,45.06,34.4,44.15,10.9-44.15,10.9-44.15Z" transform="translate(-224.44 -55.75)"/><path class="cls-10" d="M1597.29,741.12H1422.17V686.27S1525.5,685.61,1597.29,741.12Z" transform="translate(-224.44 -55.75)"/><path class="cls-11" d="M1422.17,741.12V686.27s88.77,4.38,143,54.85Z" transform="translate(-224.44 -55.75)"/><path class="cls-12" d="M1518.25,741.12h-96.1V686.27s48.26,9.49,92,50.82C1515.58,738.4,1516.93,739.75,1518.25,741.12Z" transform="translate(-224.44 -55.75)"/><path class="cls-13" d="M1421.73,802.44V741.12h175.12c3.09,2.39,6.14,4.88,9.11,7.49a163.91,163.91,0,0,1,40.2,53.83Z" transform="translate(-224.44 -55.75)"/><path class="cls-14" d="M1423.64,802.44V741.12h143c.92.85,1.82,1.71,2.71,2.58,22.21,21.79,35.57,40.7,43.52,58.74Z" transform="translate(-224.44 -55.75)"/><path class="cls-15" d="M1554.07,802.44H1423.13V741.12h96.11C1535.67,758.11,1546.93,779.24,1554.07,802.44Z" transform="translate(-224.44 -55.75)"/><path class="cls-16" d="M1664.93,878.55H1422.3V802.44h224.43C1657.84,826.08,1663.67,852.12,1664.93,878.55Z" transform="translate(-224.44 -55.75)"/><path class="cls-17" d="M1422.17,802.44H1611.4c11.11,25.23,11.62,48.77,10.87,76.11h-200.1Z" transform="translate(-224.44 -55.75)"/><path class="cls-18" d="M1422.17,802.44h130.94c7.36,23.93,10.33,50,10,76.11h-141Z" transform="translate(-224.44 -55.75)"/><path class="cls-19" d="M1422.17,878.55H1664.8a245.31,245.31,0,0,1-7.9,73.52H1422.17Z" transform="translate(-224.44 -55.75)"/><path class="cls-20" d="M1422.28,878.55h200.1c-.09,3.35-.2,6.75-.32,10.23-.66,20.19-4.46,41.55-10.47,63.29H1422.28Z" transform="translate(-224.44 -55.75)"/><path class="cls-21" d="M1422.18,878.55h141a334.45,334.45,0,0,1-3.53,44.54c-1.24,8.52-3.27,18.29-5.93,29H1422.18Z" transform="translate(-224.44 -55.75)"/><path class="cls-12" d="M1552.16,957.35c.14.78-16.14,82-44.81,80.93s-26-85.91-26-85.91l30.78,27.52Z" transform="translate(-224.44 -55.75)"/><path class="cls-11" d="M1611.59,952.07c-.47,2.06-28.31,86.68-55.36,86.12s-3.75-80.53-3.75-80.53l20.3,24.21Z" transform="translate(-224.44 -55.75)"/><path class="cls-10" d="M1656.5,953.41s-31.64,85-50.62,84.8,6.67-89.15,5.71-86.14,13.67,33.84,13.67,33.84Z" transform="translate(-224.44 -55.75)"/><path class="cls-21" d="M1553.7,952.07s-7.27,45.65-38,45-34-45-34-45Z" transform="translate(-224.44 -55.75)"/><path class="cls-20" d="M1611.59,952.07s-11.45,44.16-40,44.14c-28,0-17.9-44.14-17.9-44.14Z" transform="translate(-224.44 -55.75)"/><path class="cls-19" d="M1656.9,952.07s-12.65,45-34.4,44.14-10.91-44.14-10.91-44.14Z" transform="translate(-224.44 -55.75)"/><path class="cls-23" d="M1373.14,743.7c-6.49,15.8-11.57,34.86-14.54,58.74h127.63c-3.1-24-8.3-43.16-14.9-59-.33-.79-.67-1.56-1-2.33h-96.07Q1373.68,742.4,1373.14,743.7Z" transform="translate(-224.44 -55.75)"/><path class="cls-24" d="M1356,878.55H1488.9c1-29.9-.06-54.91-2.79-76.11H1358.48C1355.84,823.64,1354.85,848.65,1356,878.55Z" transform="translate(-224.44 -55.75)"/><path class="cls-25" d="M1356,878.55c.47,12,1.29,24.83,2.49,38.51.88,10.08,2.26,21.93,4,35h120.25c1.69-13.2,3-25.17,3.86-35.33q1.68-20.33,2.28-38.18Z" transform="translate(-224.44 -55.75)"/><path class="cls-25" d="M1362.46,952.06s11.66,47.68,58.55,47.85c52.31.19,61.7-47.85,61.7-47.85Z" transform="translate(-224.44 -55.75)"/><path class="cls-22" d="M1373.93,741.12H1470c-16.19-36.4-48.23-54.84-48.23-54.85h0S1390,704.8,1373.93,741.12Z" transform="translate(-224.44 -55.75)"/><path class="cls-10" d="M1422,1165.86h-97.28c19.41,23.45,35,41.22,41.36,48.45H1422Z" transform="translate(-224.44 -55.75)"/><path class="cls-11" d="M1422,1165.86H1339.7c16.2,24,29.16,41.36,34.56,48.45H1422Z" transform="translate(-224.44 -55.75)"/><path class="cls-12" d="M1422,1165.86h-55.22c9.75,23.6,17.34,41.26,20.46,48.45H1422Z" transform="translate(-224.44 -55.75)"/><path class="cls-10" d="M1424.09,1166l97.76-1c-19.18,23.65-35.15,42-41.48,49.28l-55.78.18Z" transform="translate(-224.44 -55.75)"/><path class="cls-11" d="M1424.1,1166l82.26-.85c-15.95,24.18-29.08,42.15-34.41,49.3H1424.6Z" transform="translate(-224.44 -55.75)"/><path class="cls-12" d="M1424.09,1166l55.22-.57c-9.5,23.69-16.91,41.43-20,48.66l-34.76.36Z" transform="translate(-224.44 -55.75)"/><path class="cls-22" d="M1408.79,1214.31h29.42c1.39-7.14,4.8-24.78,9.22-48.45h-48.11C1403.86,1189.48,1407.36,1207.12,1408.79,1214.31Z" transform="translate(-224.44 -55.75)"/><path class="cls-1" d="M1628.73,127.2c-24.61,2.75-47,20-56,43.1-48.86-37.16-127.91-24.11-162.28,26.78-66.82-25.26-147.2-9.94-200.07,38.13-33-6.59-69.4,10-86.07,39.32-3.11,5.46-5.63,11.64-4.89,17.88,2.1,17.6,25.38,21.9,43.08,21.66L2044,302c15.19-.21,35.74-5.9,34.42-21-.59-6.77-5.93-12.08-11.25-16.3-32.61-25.81-78.23-34.17-117.86-21.61,7.68-8.57,4.69-23-3.59-31s-20.12-10.94-31.5-12.62a210.39,210.39,0,0,0-113.68,15c3.45-26.64-25.37-49.08-52.16-47.41s-49.55,20.46-66.23,41.49C1702.81,164.71,1682.36,121.2,1628.73,127.2Z" transform="translate(-224.44 -55.75)"/><path class="cls-26" d="M2091.8,771.11l63.27-.24s180.08-202.11,212.53-304c28.05-88.06,16.34-195.44-57-259.37-86.38-75.31-221.22-73.92-221.22-73.92Z" transform="translate(-224.44 -55.75)"/><path class="cls-5" d="M2089.39,133.59s110.1,5,175,68.22c68.67,66.86,67.31,111.23,65.49,173.73-4.79,165.1-184.17,395.37-184.17,395.37l-53.92.2Z" transform="translate(-224.44 -55.75)"/><path class="cls-27" d="M2089.39,133.59s57.92,11.16,110.6,60.53c56.25,52.72,66.56,143.45,55.32,222.86-14.47,102.17-123.68,354-123.68,354l-39.83.15Z" transform="translate(-224.44 -55.75)"/><polygon class="cls-7" points="1934.51 715.36 1898.74 762.77 1907.05 802.82 1901.88 802.9 1893.89 762.84 1928.35 715.46 1934.51 715.36"/><path class="cls-26" d="M2088.9,771.11h-63.27S1844.78,569.69,1812,467.93c-28.38-88-17.08-195.38,56-259.58,86.09-75.64,220.94-74.76,220.94-74.76Z" transform="translate(-224.44 -55.75)"/><path class="cls-5" d="M2088.9,133.59s-110.08,5.43-174.75,68.88c-68.41,67.12-66.89,111.48-64.84,174C1854.72,541.53,2035,771.11,2035,771.11h53.92Z" transform="translate(-224.44 -55.75)"/><path class="cls-27" d="M2088.9,133.59S2031,145,1978.53,194.54c-56,52.93-66,143.7-54.48,223.06,14.86,102.12,125,353.51,125,353.51h39.83Z" transform="translate(-224.44 -55.75)"/><path class="cls-8" d="M2148,202.17c-19-45.51-59.06-68.57-59.06-68.57h0s-40,23.27-58.7,68.88c-17.48,42.53-26.44,104.79-17.4,207.9s61,360.74,61,360.74l33.62-.08s50.57-257.9,59.07-361.06S2165.66,244.61,2148,202.17Z" transform="translate(-224.44 -55.75)"/><rect class="cls-7" x="1797.45" y="711.11" width="137.05" height="4.26"/><path class="cls-7" d="M1828.1,802.27h79.08a0,0,0,0,1,0,0v68.81a8.4,8.4,0,0,1-8.4,8.4h-62.27a8.4,8.4,0,0,1-8.4-8.4V802.27A0,0,0,0,1,1828.1,802.27Z"/><path class="cls-9" d="M2123.55,858V920.7a8.4,8.4,0,0,1-8.39,8.4h-62.3a8.38,8.38,0,0,0,8.07,6.14h62.3a8.4,8.4,0,0,0,8.39-8.4V858Z" transform="translate(-224.44 -55.75)"/><polygon class="cls-7" points="1797.45 715.36 1833.95 762.21 1828.1 802.27 1833.27 802.27 1838.8 762.21 1803.61 715.36 1797.45 715.36"/><polygon class="cls-7" points="1833.95 762.21 1898.74 762.77 1900.26 770.11 1832.8 770.11 1833.95 762.21"/><path class="cls-28" d="M2036.94,350.36c1.17,6.08,2.66,12.35,6.52,17.19s10.79,7.76,16.44,5.22c6.36-2.87,8.32-10.85,9.19-17.79,6.24-49.73-2.65-102.54,17.34-148.5,4.33-9.95,10-21,5.82-31-6.63-15.68-23.59-10.9-30.48.11-9.89,15.8-15.83,36.06-20.55,54A273.21,273.21,0,0,0,2036.94,350.36Z" transform="translate(-224.44 -55.75)"/><path class="cls-28" d="M1945.62,326.29c.4,6.23,1.86,13.49,7.51,16.13,4.21,2,9.43.4,12.85-2.76s5.33-7.6,6.73-12c9.82-30.94-.66-66.88,14.47-95.61,9.86-18.73,31.72-31.5,37.82-52-23.62-12.26-50.4,36.43-59,52.7C1950.94,261.26,1943.5,294,1945.62,326.29Z" transform="translate(-224.44 -55.75)"/><path class="cls-28" d="M1871,293.22c-5,12.93-9,28-2.52,40.26,1.38,2.62,3.34,5.13,6.1,6.19,6.14,2.35,12.39-3.41,15.39-9.26,6-11.76,6.43-25.47,8.58-38.51a141.18,141.18,0,0,1,37.29-74.43c8.63-9,18.82-17.34,22.85-29.13.68-2-12.86-.25-14.36.55-3.52,1.87-5.41,5.84-8.1,8.65-9,9.4-18.28,18.27-26.44,28.49A260.31,260.31,0,0,0,1871,293.22Z" transform="translate(-224.44 -55.75)"/><path class="cls-28" d="M1821.82,306.32c-3.14,10-5.55,21.12-1.19,30.63a9.17,9.17,0,0,0,4.17,4.82c5.15,2.33,10.17-3.61,12.13-8.92,5-13.62,5-28.52,7.9-42.73,6.31-30.37,25.92-56,45-80.46,1.11-1.43-10.31.23-11.63,1-2.67,1.57-4.9,6.13-6.82,8.45-7.12,8.59-14.15,17-20.36,26.34A239.7,239.7,0,0,0,1821.82,306.32Z" transform="translate(-224.44 -55.75)"/><path class="cls-29" d="M2371,462.76c8.84-27.75,11.14-91.83,10.49-87-3.77,28.1-6.95,33.7-8.87,39.76a576.47,576.47,0,0,1-74.29,152.18,567.71,567.71,0,0,1-61.94,75.45c-26.83,27.44-56.36,52.12-83.42,79.33-12.09,12.16-24.51,27.83-22.3,44.34l27.8-.11S2338.56,564.64,2371,462.76Z" transform="translate(-224.44 -55.75)"/><path class="cls-30" d="M2095.7,766.78l12.78,0s50.57-257.91,59.07-361.06c1.84-22.34,2.85-42.76,3.12-61.47-8.8,14.57-8,42.6-10.63,57.92-4.13,24.13-8.63,48.2-14.15,72.05-6.81,29.41-15.17,58.47-21.11,88.07-4.61,23-7.74,46.26-10.88,69.51Q2104.81,699.27,2095.7,766.78Z" transform="translate(-224.44 -55.75)"/><path class="cls-31" d="M2148.62,766.8s175.5-231.32,181.72-396.27c-2.17,1.17-15.09,45.41-19.37,60.7-6.37,22.76-18.15,39-26.33,61.19-20,54.41-38.5,81.53-79.71,151.53-22.91,38.92-58.63,76-70.5,119.59a30.93,30.93,0,0,0-.72,3.32Z" transform="translate(-224.44 -55.75)"/><path class="cls-32" d="M2133.33,766.79S2242.54,515,2257,412.81c3.15-22.25,2.59-46.38,1.82-69.32-6,8.35-5.13,33.75-6.68,41.08q-9.84,46.51-22.64,92.32a1484.2,1484.2,0,0,1-63.72,181.64q-21.55,50.63-46.83,99.57a39.6,39.6,0,0,0-3.33,8.76Z" transform="translate(-224.44 -55.75)"/><path class="cls-15" d="M624.81,923.38l86.11-.33S956,648,1000.17,509.34c38.17-119.85,22.23-266-77.57-353C805.05,53.86,621.53,55.75,621.53,55.75Z" transform="translate(-224.44 -55.75)"/><path class="cls-33" d="M1005,503.83c12-37.77,15.16-125,14.27-118.34-5.13,38.24-9.46,45.86-12.07,54.11A784.3,784.3,0,0,1,906,646.7a771.11,771.11,0,0,1-84.29,102.69c-36.51,37.35-76.71,70.93-113.54,108-16.44,16.54-33.35,37.87-30.34,60.33l37.83-.14S960.79,642.49,1005,503.83Z" transform="translate(-224.44 -55.75)"/><path class="cls-34" d="M621.53,55.75s149.84,6.82,238.18,92.84c93.45,91,91.6,151.38,89.14,236.44C942.33,609.72,698.19,923.1,698.19,923.1l-73.38.28Z" transform="translate(-224.44 -55.75)"/><path class="cls-35" d="M621.53,55.75s78.83,15.19,150.53,82.38c76.55,71.74,90.59,195.23,75.28,303.29C827.65,580.47,679,923.18,679,923.18l-54.21.2Z" transform="translate(-224.44 -55.75)"/><polygon class="cls-7" points="491.76 867.63 443.08 932.15 454.38 986.66 447.35 986.77 436.49 932.25 483.38 867.76 491.76 867.63"/><path class="cls-26" d="M620.87,923.38H534.76S288.63,649.26,244,510.76c-38.62-119.7-23.24-265.89,76.23-353.27C437.35,54.56,620.87,55.75,620.87,55.75Z" transform="translate(-224.44 -55.75)"/><path class="cls-36" d="M620.87,55.75S471.06,63.14,383,149.49c-93.11,91.34-91,151.72-88.24,236.78,7.37,224.66,252.69,537.11,252.69,537.11h73.38Z" transform="translate(-224.44 -55.75)"/><path class="cls-37" d="M620.87,55.75S542.1,71.23,470.66,138.7c-76.29,72-89.85,195.57-74.14,303.57,20.22,139,170.13,481.11,170.13,481.11h54.22Z" transform="translate(-224.44 -55.75)"/><path class="cls-38" d="M701.24,149.08c-25.83-61.93-80.37-93.32-80.37-93.32h0S566.49,87.42,541,149.49c-23.79,57.88-36,142.62-23.68,282.94s83,491,83,491l45.75-.11s68.82-351,80.39-491.38S725.33,206.84,701.24,149.08Z" transform="translate(-224.44 -55.75)"/><rect class="cls-7" x="305.23" y="861.84" width="186.52" height="5.79"/><path class="cls-7" d="M346.95,985.91H454.57a0,0,0,0,1,0,0v93.65A11.44,11.44,0,0,1,443.13,1091H358.39a11.44,11.44,0,0,1-11.44-11.44V985.91A0,0,0,0,1,346.95,985.91Z"/><path class="cls-9" d="M668,1041.66V1127a11.42,11.42,0,0,1-11.42,11.43H571.81a11.43,11.43,0,0,0,11,8.35h84.77A11.42,11.42,0,0,0,679,1135.32v-93.66Z" transform="translate(-224.44 -55.75)"/><polygon class="cls-7" points="305.23 867.63 354.9 931.39 346.95 985.91 353.98 985.91 361.5 931.39 313.62 867.63 305.23 867.63"/><polygon class="cls-7" points="354.9 931.39 443.08 932.15 445.15 942.14 353.33 942.14 354.9 931.39"/><path class="cls-39" d="M542.4,355.33c1.59,8.28,3.61,16.82,8.88,23.4s14.68,10.57,22.36,7.11c8.67-3.91,11.33-14.77,12.51-24.21,8.49-67.68-3.59-139.56,23.6-202.1,5.89-13.55,13.67-28.66,7.92-42.27-9-21.34-32.1-14.83-41.47.15-13.47,21.51-21.56,49.09-28,73.43A371.77,371.77,0,0,0,542.4,355.33Z" transform="translate(-224.44 -55.75)"/><path class="cls-39" d="M418.12,322.58c.55,8.48,2.53,18.36,10.22,21.95,5.73,2.68,12.84.54,17.48-3.75s7.26-10.34,9.17-16.37c13.36-42.12-.9-91,19.69-130.12,13.42-25.49,43.17-42.88,51.47-70.83C494,106.78,457.56,173,445.88,195.17,425.36,234.08,415.24,278.61,418.12,322.58Z" transform="translate(-224.44 -55.75)"/><path class="cls-39" d="M316.63,277.57c-6.89,17.6-12.19,38.05-3.43,54.79,1.87,3.57,4.53,7,8.29,8.43,8.36,3.19,16.87-4.64,20.94-12.6,8.2-16,8.76-34.66,11.68-52.41a192.29,192.29,0,0,1,50.75-101.3c11.75-12.22,25.62-23.6,31.1-39.65.93-2.69-17.49-.33-19.55.76-4.78,2.53-7.35,7.94-11,11.77-12.28,12.79-24.88,24.86-36,38.78A353.52,353.52,0,0,0,316.63,277.57Z" transform="translate(-224.44 -55.75)"/><path class="cls-39" d="M249.64,295.4c-4.27,13.58-7.56,28.75-1.63,41.69,1.23,2.69,3,5.33,5.68,6.55,7,3.18,13.84-4.91,16.51-12.14C277,313,276.94,292.69,281,273.35c8.59-41.33,35.28-76.21,61.22-109.5,1.52-1.95-14,.31-15.82,1.36-3.63,2.14-6.67,8.35-9.29,11.5-9.68,11.69-19.25,23.19-27.69,35.85A325.89,325.89,0,0,0,249.64,295.4Z" transform="translate(-224.44 -55.75)"/><path class="cls-40" d="M630.27,917.59l17.39,0s68.82-351,80.39-491.38c2.5-30.4,3.87-58.19,4.24-83.66-12,19.84-10.89,58-14.46,78.83-5.63,32.83-11.75,65.59-19.26,98.05-9.27,40-20.65,79.57-28.73,119.86-6.27,31.3-10.54,63-14.8,94.6Q642.65,825.71,630.27,917.59Z" transform="translate(-224.44 -55.75)"/><path class="cls-41" d="M702.28,917.62S941.13,602.8,949.6,378.32c-3,1.59-20.54,61.8-26.36,82.6-8.68,31-24.71,53.11-35.83,83.28-27.3,74-52.4,111-108.49,206.23-31.19,53-79.79,103.45-95.95,162.75a42.34,42.34,0,0,0-1,4.51Z" transform="translate(-224.44 -55.75)"/><path class="cls-42" d="M681.48,917.6S830.1,574.9,849.8,435.85c4.28-30.27,3.53-63.11,2.48-94.33-8.16,11.36-7,45.92-9.1,55.91q-13.38,63.29-30.8,125.64a2022.43,2022.43,0,0,1-86.73,247.19q-29.32,68.93-63.73,135.52a54.48,54.48,0,0,0-4.54,11.91Z" transform="translate(-224.44 -55.75)"/></svg>