<svg xmlns="http://www.w3.org/2000/svg" viewBox="0 0 19.09 41.01"><defs><style>.cls-1{fill:#a8b7bf;}</style></defs><title>klaipeda</title><g id="Layer_2" data-name="Layer 2"><g id="lt-county-map"><path class="cls-1" d="M7.5.78,5.44,3.63,5,4,3,4.83l-.31-1-1.59.67L.64,4l-.5.35L0,4.65l.12.19L0,4.9l.23.81s.16.91.16.91S.58,9,.58,9h0l.09,2.08,0,1.68v1l-.08.63s-.09.65-.13,1H.26v.45l1.09.88.25.51c0,.08,0,1.91,0,1.91l0,.31c0,.06.14.81.14.81h0s0,.79,0,.79l.4,1.7h0s0,.54,0,.54l-.06,1.29s-.1.35-.1.35-.07,1-.07,1,.18,1.53.18,1.54l0,1.22,4.21-1.25-.07.36s-.53.94-.53.95l-.45.5-.06.07.71,4L6,34.59s.11,1.65.11,1.65l0,.2,3-.24,1.31-.1.8,2.29s.9,2.3.9,2.3.11.19.11.19l.08.13,1-.25-.13-1.45-.29-.39s-1.44-4-1.67-4.66l.2-.18.39.23h.49l.41.4,1.89-.58,1-.12,1.11-.24.94.18.26.23.32-.24L18,33.4l.43,0,.2,0h.05l.38-.35-.71-2.74-1-2.71,1.71-1-.41-1.06-1.69,1c-.13-.36-.71-1.87-.71-1.87l-.53-1.35-1.47-4.58s-.78-3.1-.78-3.1-2.24-6.13-2.24-6.13-.64-1-.75-1.12,0-.42,0-.42l-.38-.48H9.91l-.12-.17,0-.31-.63-.33L9,6.75l-.12-.09L9,6.39l-.18-.34L8.26,6A2.06,2.06,0,0,0,8,6.1s0,0,0,0L7.88,6l-.26-.17C7.7,5.63,8,5,8,5s.1-.76.1-.76l.29-2.32v0c0-.11,0-.77,0-.77s-.25-.7-.25-.7L7.92,0Z"/></g></g></svg>